# xmcd
#
# Track frame offsets:
#	150
#	12644
#	14921
#	39566
#	64340
#	86699
#	105081
#	137252
#	170933
#	184009
#	211152
#	245237
#	254438
#	285615
#	306222
#	330015
#
# Disc length: 4451 seconds
#
# Revision: 3
# Processed by: cddbd v1.4PL0 Copyright (c) Steve Scherf et al.
# Submitted via: EasyCDDAExtractor 5.1.0
#
DISCID=e3116110
DTITLE=Daft Punk - Homework
DYEAR=1900
DGENRE=Blues
TTITLE0=Daftendirekt
TTITLE1=Wdpk 83-7 fm
TTITLE2=Revoltion 909
TTITLE3=Da funk
TTITLE4=Phoenix
TTITLE5=Fresh
TTITLE6=Around the world
TTITLE7=Rollin' and scratchin'
TTITLE8=Teachers
TTITLE9=High fidelity
TTITLE10=Rock'n roll
TTITLE11=Oh yeah
TTITLE12=Burnin'
TTITLE13=Indo silver club
TTITLE14=Alive
TTITLE15=Indo silver club
EXTD=
EXTT0=
EXTT1=
EXTT2=
EXTT3=
EXTT4=
EXTT5=
EXTT6=
EXTT7=
EXTT8=
EXTT9=
EXTT10=
EXTT11=
EXTT12=
EXTT13=
EXTT14=
EXTT15=
PLAYORDER=
